PathFileType	3	(X/Y/Z)	walking_2__view2_aligned.trc
DataRate	CameraRate	NumFrames	NumMarkers	Units	OrigDataRate	OrigDataStartFrame	OrigNumFrames
100.0	100.0	17	19	mm	100.0	4953	6310
Frame#	Time	pelvis			neck			head			hip_left			hip_right			knee_left			knee_right			ankle_left			ankle_right			heel_left			heel_right			toe_left			toe_right			shoulder_left			shoulder_right			elbow_left			elbow_right			wrist_left			wrist_right			
		X1	Y1	Z1	X2	Y2	Z2	X3	Y3	Z3	X4	Y4	Z4	X5	Y5	Z5	X6	Y6	Z6	X7	Y7	Z7	X8	Y8	Z8	X9	Y9	Z9	X10	Y10	Z10	X11	Y11	Z11	X12	Y12	Z12	X13	Y13	Z13	X14	Y14	Z14	X15	Y15	Z15	X16	Y16	Z16	X17	Y17	Z17	X18	Y18	Z18	X19	Y19	Z19	
4953	49.52000	97.342787	936.162487	135.269731	85.920659	1491.554669	199.041081	52.182745	1580.892561	344.142025	172.693417	939.999556	141.851950	21.992539	932.325379	128.687560	184.400727	498.793142	78.707420	-57.754537	551.905931	353.557866	179.220245	111.219533	-80.305904	-94.320886	158.290475	330.120595	175.695565	68.637580	-122.787571	-93.169992	111.968768	299.083125	170.827976	30.359252	94.333278	-124.669754	104.329603	503.189592	266.353793	1433.512740	202.400881	-76.614422	1444.190909	119.559804	341.260298	1148.907213	209.011705	-136.270964	1161.700931	53.615081	305.969563	920.892308	346.589799	-198.434643	894.996411	68.455479
4954	49.53000	95.224808	935.305977	135.001034	83.790317	1490.641473	199.166304	49.761498	1580.160789	344.191945	170.494263	939.037619	141.480132	19.955686	931.574301	128.521976	183.423612	497.972419	76.104102	-58.718797	551.479027	353.489748	178.954637	114.637414	-88.589437	-95.592268	154.925916	336.411928	175.520271	73.080601	-131.511869	-94.660410	107.601790	305.888259	170.554008	31.267433	83.015420	-125.375841	103.719280	512.373009	264.469989	1432.360886	202.914620	-78.776608	1443.308688	119.603886	338.418929	1147.565640	210.486510	-138.265402	1161.107773	51.955830	301.465744	919.999161	348.899164	-200.078317	894.210578	63.796321
4955	49.54000	93.106828	934.449468	134.732337	81.659974	1489.728277	199.291527	47.340251	1579.429017	344.241864	168.295109	938.075683	141.108314	17.918833	930.823224	128.356392	182.446497	497.151696	73.500785	-59.683058	551.052124	353.421629	178.689030	118.055295	-96.872969	-96.863650	151.561358	342.703261	175.344978	77.523623	-140.236167	-96.150828	103.234812	312.693392	170.280040	32.175615	71.697562	-126.081928	103.108957	521.556426	262.586186	1431.209031	203.428359	-80.938794	1442.426467	119.647968	335.577560	1146.224067	211.961316	-140.259841	1160.514615	50.296578	296.961926	919.106014	351.208529	-201.721992	893.424745	59.137162
4956	49.55000	90.988848	933.592959	134.463641	79.529632	1488.815082	199.416750	44.919003	1578.697244	344.291783	166.095954	937.113747	140.736497	15.881980	930.072146	128.190809	181.469382	496.330972	70.897467	-60.647319	550.625220	353.353511	178.423423	121.473176	-105.156502	-98.135033	148.196799	348.994594	175.169684	81.966644	-148.960465	-97.641246	98.867834	319.498526	170.006073	33.083796	60.379704	-126.788016	102.498634	530.739843	260.702382	1430.057177	203.942098	-83.100980	1441.544245	119.692050	332.736191	1144.882494	213.436122	-142.254279	1159.921457	48.637327	292.458107	918.212867	353.517894	-203.365666	892.638912	54.478004
4957	49.56000	88.870868	932.736450	134.194944	77.399290	1487.901886	199.541973	42.497756	1577.965472	344.341702	163.896800	936.151811	140.364679	13.845128	929.321069	128.025225	180.492266	495.510249	68.294150	-61.611579	550.198316	353.285393	178.157816	124.891057	-113.440034	-99.406415	144.832241	355.285927	174.994390	86.409666	-157.684764	-99.131664	94.500856	326.303660	169.732105	33.991978	49.061847	-127.494103	101.888311	539.923260	258.818578	1428.905322	204.455837	-85.263166	1440.662024	119.736131	329.894823	1143.540922	214.910928	-144.248718	1159.328299	46.978076	287.954288	917.319720	355.827260	-205.009341	891.853078	49.818846
4958	49.57000	86.752889	931.879940	133.926247	75.268947	1486.988690	199.667196	40.076509	1577.233700	344.391621	161.697646	935.189874	139.992861	11.808275	928.569992	127.859641	179.515151	494.689525	65.690832	-62.575840	549.771413	353.217274	177.892208	128.308938	-121.723567	-100.677797	141.467683	361.577260	174.819097	90.852687	-166.409062	-100.622083	90.133878	333.108793	169.458138	34.900159	37.743989	-128.200190	101.277989	549.106678	256.934774	1427.753468	204.969576	-87.425352	1439.779803	119.780213	327.053454	1142.199349	216.385733	-146.243156	1158.735141	45.318825	283.450470	916.426573	358.136625	-206.653015	891.067245	45.159687
4959	49.58000	84.634909	931.023431	133.657550	73.138605	1486.075494	199.792419	37.655261	1576.501927	344.441541	159.498492	934.227938	139.621043	9.771422	927.818914	127.694057	178.538036	493.868802	63.087515	-63.540101	549.344509	353.149156	177.626601	131.726818	-130.007099	-101.949179	138.103124	367.868593	174.643803	95.295709	-175.133360	-102.112501	85.766900	339.913927	169.184170	35.808341	26.426131	-128.906277	100.667666	558.290095	255.050970	1426.601613	205.483315	-89.587538	1438.897581	119.824295	324.212085	1140.857776	217.860539	-148.237595	1158.141983	43.659573	278.946651	915.533426	360.445990	-208.296690	890.281412	40.500529
4960	49.59000	82.516929	930.166922	133.388853	71.008262	1485.162298	199.917642	35.234014	1575.770155	344.491460	157.299338	933.266002	139.249226	7.734569	927.067837	127.528473	177.560921	493.048078	60.484197	-64.504362	548.917605	353.081038	177.360994	135.144699	-138.290632	-103.220562	134.738566	374.159926	174.468510	99.738731	-183.857658	-103.602919	81.399923	346.719061	168.910203	36.716522	15.108273	-129.612364	100.057343	567.473512	253.167167	1425.449759	205.997054	-91.749724	1438.015360	119.868376	321.370717	1139.516203	219.335345	-150.232033	1157.548825	42.000322	274.442832	914.640278	362.755355	-209.940364	889.495579	35.841370
4961	49.60000	80.398950	929.310412	133.120156	68.877920	1484.249103	200.042865	32.812767	1575.038383	344.541379	155.100184	932.304065	138.877408	5.697717	926.316759	127.362889	176.583806	492.227355	57.880880	-65.468622	548.490702	353.012919	177.095387	138.562580	-146.574165	-104.491944	131.374007	380.451259	174.293216	104.181752	-192.581956	-105.093337	77.032945	353.524194	168.636235	37.624704	3.790416	-130.318451	99.447020	576.656929	251.283363	1424.297904	206.510793	-93.911910	1437.133139	119.912458	318.529348	1138.174630	220.810151	-152.226472	1156.955667	40.341071	269.939014	913.747131	365.064721	-211.584039	888.709746	31.182212
4962	49.61000	75.912858	928.915844	133.057911	63.882492	1483.699130	200.162466	27.776707	1574.415474	344.589144	150.550600	931.808987	138.743624	1.275094	926.022709	127.372185	173.926272	492.188196	59.562741	-67.749036	547.520439	351.526650	175.651204	143.165797	-151.501662	-106.299697	130.047954	379.916822	172.933196	110.011680	-198.090700	-107.082238	75.516993	353.152295	167.563658	38.734831	-4.688040	-130.835908	98.861968	576.479348	246.258565	1423.991778	206.226023	-98.963262	1436.187339	120.477628	313.688412	1137.863775	220.529242	-156.929846	1155.811114	40.923858	266.050074	913.473246	364.805531	-216.999023	886.973945	30.623679
4963	49.62000	71.426766	928.521276	132.995667	58.887064	1483.149157	200.282067	22.740647	1573.792565	344.636910	146.001015	931.313909	138.609839	-3.147529	925.728659	127.381480	171.268739	492.149037	61.244603	-70.029450	546.550175	350.040380	174.207022	147.769013	-156.429160	-108.107451	128.721901	379.382384	171.573176	115.841608	-203.599444	-109.071138	74.001042	352.780396	166.491081	39.844958	-13.166496	-131.353365	98.276916	576.301768	241.233767	1423.685652	205.941254	-104.014614	1435.241539	121.042797	308.847476	1137.552920	220.248333	-161.633221	1154.666560	41.506645	262.161134	913.199360	364.546341	-222.414007	885.238145	30.065146
4964	49.63000	66.940674	928.126707	132.933422	53.891636	1482.599184	200.401668	17.704586	1573.169656	344.684675	141.451431	930.818831	138.476055	-7.570152	925.434609	127.390776	168.611205	492.109878	62.926464	-72.309864	545.579912	348.554110	172.762839	152.372229	-161.356657	-109.915205	127.395848	378.847947	170.213156	121.671537	-209.108189	-111.060039	72.485091	352.408496	165.418504	40.955086	-21.644952	-131.870822	97.691864	576.124187	236.208969	1423.379525	205.656484	-109.065966	1434.295739	121.607967	304.006540	1137.242064	219.967424	-166.336596	1153.522007	42.089432	258.272194	912.925475	364.287151	-227.828991	883.502344	29.506613
4965	49.64000	62.454582	927.732139	132.871177	48.896208	1482.049212	200.521269	12.668526	1572.546747	344.732441	136.901846	930.323753	138.342270	-11.992775	925.140559	127.400072	165.953672	492.070719	64.608326	-74.590278	544.609649	347.067840	171.318657	156.975446	-166.284155	-111.722958	126.069794	378.313509	168.853136	127.501465	-214.616933	-113.048939	70.969140	352.036597	164.345927	42.065213	-30.123408	-132.388278	97.106813	575.946606	231.184171	1423.073399	205.371714	-114.117318	1433.349939	122.173137	299.165604	1136.931209	219.686515	-171.039971	1152.377453	42.672219	254.383253	912.651589	364.027961	-233.243975	881.766544	28.948080
4966	49.65000	57.968490	927.337571	132.808932	43.900780	1481.499239	200.640870	7.632466	1571.923839	344.780206	132.352261	929.828675	138.208486	-16.415398	924.846509	127.409367	163.296139	492.031560	66.290187	-76.870692	543.639386	345.581570	169.874474	161.578662	-171.211653	-113.530712	124.743741	377.779072	167.493116	133.331393	-220.125677	-115.037840	69.453188	351.664697	163.273350	43.175340	-38.601863	-132.905735	96.521761	575.769025	226.159373	1422.767272	205.086944	-119.168670	1432.404139	122.738306	294.324668	1136.620354	219.405606	-175.743346	1151.232900	43.255007	250.494313	912.377704	363.768771	-238.658960	880.030744	28.389547
4967	49.66000	53.482398	926.943002	132.746687	38.905352	1480.949266	200.760471	2.596406	1571.300930	344.827971	127.802677	929.333597	138.074702	-20.838021	924.552458	127.418663	160.638605	491.992402	67.972049	-79.151106	542.669123	344.095301	168.430292	166.181878	-176.139150	-115.338465	123.417688	377.244635	166.133096	139.161321	-225.634421	-117.026741	67.937237	351.292798	162.200773	44.285467	-47.080319	-133.423192	95.936709	575.591445	221.134575	1422.461146	204.802174	-124.220022	1431.458339	123.303476	289.483732	1136.309498	219.124697	-180.446720	1150.088347	43.837794	246.605373	912.103818	363.509582	-244.073944	878.294943	27.831014
4968	49.67000	48.996306	926.548434	132.684442	33.909924	1480.399293	200.880072	-2.439654	1570.678021	344.875737	123.253092	928.838518	137.940917	-25.260643	924.258408	127.427958	157.981072	491.953243	69.653911	-81.431519	541.698860	342.609031	166.986109	170.785095	-181.066648	-117.146219	122.091634	376.710197	164.773076	144.991249	-231.143165	-119.015641	66.421286	350.920899	161.128196	45.395594	-55.558775	-133.940649	95.351657	575.413864	216.109777	1422.155019	204.517404	-129.271374	1430.512539	123.868645	284.642796	1135.998643	218.843788	-185.150095	1148.943793	44.420581	242.716433	911.829933	363.250392	-249.488928	876.559143	27.272481
4969	49.68000	44.510214	926.153866	132.622198	28.914496	1479.849321	200.999674	-7.475715	1570.055112	344.923502	118.703508	928.343440	137.807133	-29.683266	923.964358	127.437254	155.323538	491.914084	71.335772	-83.711933	540.728596	341.122761	165.541927	175.388311	-185.994145	-118.953972	120.765581	376.175760	163.413056	150.821177	-236.651909	-121.004542	64.905334	350.548999	160.055619	46.505722	-64.037231	-134.458106	94.766605	575.236283	211.084979	1421.848893	204.232634	-134.322726	1429.566738	124.433815	279.801860	1135.687788	218.562878	-189.853470	1147.799240	45.003368	238.827493	911.556047	362.991202	-254.903912	874.823342	26.713948
